<svg width="40" height="40" viewBox="0 0 40 40" fill="none" xmlns="http://www.w3.org/2000/svg">
<g filter="url(#filter0_d_0_124)">
<circle cx="20" cy="16.0002" r="16" fill="#FFD93B"/>
<path fill-rule="evenodd" clip-rule="evenodd" d="M29.7928 20.9852C28.141 24.9316 24.2811 27.5004 20.0028 27.5004C15.7246 27.5004 11.8647 24.9316 10.2128 20.9852C10.0569 20.6265 10.0986 20.2124 10.3231 19.8921C10.5475 19.5717 10.9224 19.3911 11.3128 19.4152C17.097 19.7821 22.8986 19.7821 28.6827 19.4152C29.0733 19.392 29.4482 19.5721 29.6741 19.8916C29.9 20.2111 29.9449 20.6246 29.7928 20.9852Z" fill="#3E4347"/>
<path fill-rule="evenodd" clip-rule="evenodd" d="M35.5729 16.0002C35.5761 22.6046 31.4122 28.4933 25.1838 30.692C18.9553 32.8907 12.0174 30.9211 7.87329 25.7777C14.0688 30.7758 23.0361 30.2974 28.6646 24.6686C34.2932 19.0398 34.7712 10.0725 29.7729 3.8772C33.4421 6.83154 35.5749 11.2894 35.5729 16.0002H35.5729Z" fill="#F4C534"/>
<ellipse cx="13.58" cy="11.7132" rx="5.655" ry="5.66" fill="white"/>
<path fill-rule="evenodd" clip-rule="evenodd" d="M17.629 11.3541C17.6311 12.514 16.9336 13.561 15.8622 14.006C14.7908 14.4509 13.5569 14.2061 12.7366 13.3859C11.9162 12.5656 11.6713 11.3317 12.1161 10.2601C12.5609 9.18872 13.6078 8.49121 14.7679 8.49316C15.5271 8.49182 16.2556 8.79272 16.7925 9.32959C17.3293 9.86646 17.6303 10.595 17.629 11.3541Z" fill="#3E4347"/>
<path fill-rule="evenodd" clip-rule="evenodd" d="M16.4128 10.8103C16.2179 11.0104 15.8129 10.9174 15.5079 10.6104C15.2029 10.3033 15.1079 9.91028 15.3079 9.70532C15.5079 9.50037 15.9079 9.60535 16.2129 9.90527C16.5179 10.2053 16.6169 10.6154 16.4128 10.8103Z" fill="white"/>
<ellipse cx="26.4201" cy="11.7132" rx="5.655" ry="5.66" fill="white"/>
<path fill-rule="evenodd" clip-rule="evenodd" d="M22.0911 11.3541C22.089 12.514 22.7864 13.561 23.8578 14.006C24.9292 14.4509 26.1631 14.2061 26.9835 13.3859C27.8038 12.5656 28.0488 11.3317 27.604 10.2601C27.1591 9.18872 26.1123 8.49121 24.9521 8.49316C24.193 8.49182 23.4645 8.79272 22.9276 9.32959C22.3907 9.86646 22.0897 10.595 22.0911 11.3541Z" fill="#3E4347"/>
<path fill-rule="evenodd" clip-rule="evenodd" d="M23.3071 10.8103C23.5021 11.0104 23.907 10.9174 24.2121 10.6104C24.517 10.3033 24.6121 9.91028 24.412 9.70532C24.2121 9.50037 23.8121 9.60535 23.5071 9.90527C23.2021 10.2053 23.0991 10.6154 23.3071 10.8103Z" fill="white"/>
<path fill-rule="evenodd" clip-rule="evenodd" d="M11.313 19.4161C11.246 19.4149 11.1791 19.42 11.113 19.4312C12.92 21.8782 16.2131 22.0132 19.996 22.0132C23.7791 22.0132 27.0721 21.8782 28.8791 19.4312C28.813 19.4203 28.746 19.4152 28.6791 19.4161C22.8961 19.7828 17.0958 19.7828 11.3129 19.4161H11.313Z" fill="white"/>
<path fill-rule="evenodd" clip-rule="evenodd" d="M19.998 27.5012C21.5624 27.5027 23.1077 27.1567 24.522 26.4883C24.4661 25.3923 24.0116 24.3545 23.2441 23.5703C22.6375 22.9619 21.7358 22.7555 20.925 23.0393C20.1608 23.3049 19.3572 23.4402 18.548 23.4392C17.0789 23.448 15.8216 24.4957 15.548 25.9392C15.5191 26.1243 15.5021 26.3109 15.4971 26.4982C16.9052 27.1598 18.4422 27.5023 19.998 27.5012Z" fill="#E24B4B"/>
</g>
<defs>
<filter id="filter0_d_0_124" x="0" y="0.000244141" width="40" height="40" filterUnits="userSpaceOnUse" color-interpolation-filters="sRGB">
<feFlood flood-opacity="0" result="BackgroundImageFix"/>
<feColorMatrix in="SourceAlpha" type="matrix" values="0 0 0 0 0 0 0 0 0 0 0 0 0 0 0 0 0 0 127 0" result="hardAlpha"/>
<feOffset dy="4"/>
<feGaussianBlur stdDeviation="2"/>
<feComposite in2="hardAlpha" operator="out"/>
<feColorMatrix type="matrix" values="0 0 0 0 0 0 0 0 0 0 0 0 0 0 0 0 0 0 0.25 0"/>
<feBlend mode="normal" in2="BackgroundImageFix" result="effect1_dropShadow_0_124"/>
<feBlend mode="normal" in="SourceGraphic" in2="effect1_dropShadow_0_124" result="shape"/>
</filter>
</defs>
</svg>
